<svg width="190" height="172" viewBox="0 0 190 172" fill="none" xmlns="http://www.w3.org/2000/svg">
<path d="M140.538 147.405C140.538 133.898 151.504 122.939 165.003 122.939C178.51 122.939 189.462 133.898 189.462 147.405C189.462 160.912 178.51 171.864 165.003 171.864C151.504 171.864 140.538 160.912 140.538 147.405Z" fill="white"/>
<path d="M93.8992 82.6128C93.8992 67.1175 90.9044 55.6205 84.9146 48.1313C78.9187 40.6473 69.8362 36.9094 57.6244 36.9094H44.6342V131.671H54.5732C68.1376 131.671 78.0767 127.651 84.4051 119.581C90.7272 111.526 93.8992 99.2001 93.8992 82.6128ZM140.225 80.9986C140.225 109.231 132.635 130.986 117.458 146.255C102.28 161.531 80.9434 169.17 53.4405 169.17H0V0H57.1711C83.6902 0 104.163 6.94527 118.59 20.8275C133.012 34.717 140.225 54.7639 140.225 80.9986Z" fill="white"/>
</svg>
