<svg preserveAspectRatio="none" overflow="visible" style="display: block;" width="168" height="20" viewBox="0 0 168 20" fill="none" xmlns="http://www.w3.org/2000/svg">
<g id="Frame 1336325468">
<g id="Group 1336325467">
<path id="Vector" d="M9.32006 9.20658L9.2822 9.30439C9.91321 9.58203 11.3298 10.6832 11.3298 12.9012C11.3298 14.9898 9.56931 17.0942 6.80232 17.0942C3.36014 17.0942 2.17384 15.0813 2.17384 13.2324C2.17384 10.863 3.83025 9.28546 3.83025 7.12739C3.82123 6.36414 3.55357 5.62652 3.07103 5.03509C2.58848 4.44366 1.91959 4.0334 1.17368 3.87137L1.11689 3.96917C1.3874 4.23165 1.60203 4.54611 1.74788 4.89366C1.89373 5.24121 1.96779 5.61466 1.9656 5.99157C1.9656 8.32316 0 9.97957 0 12.6551C0 15.1192 1.72267 17.6306 6.71082 17.6306C11.1563 17.6306 13.5005 15.4536 13.5005 13.1378C13.4974 11.1501 12.0744 9.46845 9.32006 9.20658Z" fill="white"/>
<path id="Vector_2" d="M6.77021 14.2924L8.03219 2.36941H5.41347L6.67548 14.2924H6.77021Z" fill="white"/>
</g>
<path id="Vector_3" d="M30.1626 17.77L20.3055 4.94164V16.5057L22.3159 16.9892V17.5204H17.732V16.9892L19.374 16.5057V3.90581C18.9744 3.52981 18.4932 3.25332 17.9689 3.09839C17.7689 3.05589 17.5005 3.00807 17.5005 3.00807V2.47688H21.3896L29.81 13.5257V3.5021L27.7996 3.0134V2.48221H32.3834V3.0134L30.7414 3.5021V14.9706C30.7414 16.033 30.8151 17.5788 30.8309 17.7753L30.1626 17.77ZM50.7713 9.60021C50.7713 14.9122 47.0874 17.9931 43.0614 17.9931C39.0355 17.9931 35.3358 14.8697 35.3358 10.0145C35.3358 5.15944 39.0197 2.00412 43.0246 2.00412C44.0327 1.97053 45.0371 2.14256 45.9779 2.50991C46.9186 2.87725 47.7762 3.43236 48.4994 4.14203C49.2227 4.85169 49.7966 5.70133 50.187 6.64009C50.5773 7.57886 50.7761 8.58746 50.7713 9.60555V9.60021ZM48.2084 10.397C48.2084 6.49272 45.8928 2.70528 42.7457 2.70528C39.3986 2.70528 37.8882 5.97214 37.8882 9.4674C37.8882 12.9627 39.7985 17.2972 43.393 17.2972C46.7716 17.2972 48.2084 13.8445 48.2084 10.397ZM53.9552 3.49149L52.3764 3.00273V2.47154H58.4232V3.00273L56.5286 3.49149L60.702 14.9759L64.8753 3.49149L62.9807 3.00273V2.47154H67.454V3.00273L65.8752 3.49149L60.6493 17.8072H59.3126L53.9552 3.49149ZM89.6889 9.83929H88.7311V3.26302C91.8887 3.26302 93.7675 3.99613 93.7675 6.59898C93.7517 8.5325 92.1097 9.83929 89.6889 9.83929ZM116.744 16.9892L118.849 16.5057V3.49683L116.744 3.00807V2.47688H123.307V3.00807L121.202 3.49676V16.5057L123.307 16.9892V17.5204H116.744V16.9892ZM127.328 13.3876H127.743L129.138 16.628C129.967 17.0483 130.879 17.2769 131.806 17.2972C133.617 17.2972 135.269 16.2348 135.269 14.3332C135.269 12.8883 134.343 12.0278 132.843 11.2363L131.359 10.4607C129.585 9.53117 127.812 8.21377 127.812 6.09434C127.812 3.78894 129.391 2.00939 132.769 2.00939C133.957 2.02156 135.135 2.21682 136.264 2.58841L136.616 6.07306H136.169L134.88 3.27897C134.212 2.9027 133.46 2.7052 132.696 2.70528C130.985 2.70528 129.822 3.76766 129.822 5.23915C129.822 6.57237 130.701 7.41168 132.206 8.19789L133.964 9.12212C136.364 10.3757 137.501 11.5391 137.501 13.6904C137.501 16.3464 135.032 17.9985 131.964 17.9985C130.52 18.0206 129.081 17.8035 127.707 17.3557L127.328 13.3876ZM66.491 16.9892L68.1803 16.5057L73.3956 2.4662L75.1375 2.01473L80.5213 16.5005L82.2106 16.9892V17.5204H75.8217V16.9892L77.9847 16.5005L76.4585 12.3359H70.7222L69.2065 16.5005L71.3695 16.9838V17.515H66.491V16.9892ZM71.1221 11.2257H76.0848L73.6219 4.51138L71.1221 11.2257ZM92.6992 10.1633C93.2254 10.0305 96.1778 9.27088 96.1778 6.44489C96.1778 4.17671 94.4569 2.41844 90.2152 2.41844C87.5838 2.41844 84.9525 2.47688 84.6209 2.48748V3.01867L86.3524 3.50737V16.5005L84.6209 16.9892V17.5204H90.7467V16.9892L88.7364 16.5005V10.6254H90.4678L94.8937 17.531H98.8144V16.9998L96.8304 16.4686L92.6992 10.1633ZM105.635 3.25775V16.5058L103.53 16.9891V17.5204H110.092V16.9892L107.987 16.5057V3.26308H111.529L112.697 5.80223H113.15L112.813 2.49288H100.809L100.472 5.80223H100.925L102.083 3.2897L105.635 3.25775Z" fill="white"/>
</g>
</svg>
