<svg width="80" height="80" viewBox="0 0 80 80" fill="none" xmlns="http://www.w3.org/2000/svg">
<rect width="80" height="80" rx="16" fill="#063477"/>
<mask id="mask0_5322_29616" style="mask-type:luminance" maskUnits="userSpaceOnUse" x="20" y="11" width="39" height="60">
<path d="M59 11H20V71H59V11Z" fill="white"/>
</mask>
<g mask="url(#mask0_5322_29616)">
<path d="M55.82 11.8154H23.9107C22.5772 11.8154 21.4961 12.9115 21.4961 14.2636V23.692C21.4961 25.0441 22.5772 26.1402 23.9107 26.1402H55.82C57.1536 26.1402 58.2346 25.0441 58.2346 23.692V14.2636C58.2346 12.9115 57.1536 11.8154 55.82 11.8154Z" fill="white"/>
<path d="M25.1087 10.5H55.2319C55.8605 10.5 56.3794 11.0159 56.3794 11.6634V24.0053C56.3794 24.6426 55.8705 25.1687 55.2319 25.1687H21.2373C20.6087 25.1687 20.0898 24.6528 20.0898 24.0053V15.5885C20.0898 12.7863 22.3349 10.5 25.1087 10.5Z" fill="#43DBFF"/>
<path d="M58.1464 31.0265C58.6951 37.683 58.0765 55.5687 38.6097 70.0452C37.7216 70.7027 36.4844 70.6218 35.6961 69.8428L24.93 59.2814C24.93 59.2814 38.4001 53.6871 40.1463 41.77H23.2637C22.5053 41.77 21.8867 41.1428 21.8867 40.374V28.376H55.2827C56.7694 28.376 58.0166 29.5292 58.1464 31.0366V31.0265Z" fill="#063477"/>
<path d="M56.2297 29.6201C56.8284 35.9024 56.6188 54.1927 36.8526 68.9626C35.8948 69.6808 34.5577 69.5898 33.6996 68.7501L25.5078 60.7177C24.3404 59.5746 24.5799 57.612 25.9867 56.7825C29.489 54.7188 35.1564 50.5407 37.4413 44.0764C38.0101 42.4679 36.8027 40.7886 35.1265 40.7886H22.4446C21.0876 40.7886 20 39.6758 20 38.3101V29.873C20 28.4972 21.0976 27.3945 22.4446 27.3945H53.7851C55.0423 27.3945 56.1 28.3657 56.2197 29.6404L56.2297 29.6201Z" fill="white"/>
</g>
</svg>
